<svg id="visual" viewBox="0 0 900 600" width="900" height="600" xmlns="http://www.w3.org/2000/svg" xmlns:xlink="http://www.w3.org/1999/xlink" version="1.1"><path d="M193 0L192.7 11.2C192.3 22.3 191.7 44.7 180 66.8C168.3 89 145.7 111 141.5 133.2C137.3 155.3 151.7 177.7 153 200C154.3 222.3 142.7 244.7 146.7 266.8C150.7 289 170.3 311 179 333.2C187.7 355.3 185.3 377.7 181.3 400C177.3 422.3 171.7 444.7 161.8 466.8C152 489 138 511 140 533.2C142 555.3 160 577.7 169 588.8L178 600L0 600L0 588.8C0 577.7 0 555.3 0 533.2C0 511 0 489 0 466.8C0 444.7 0 422.3 0 400C0 377.7 0 355.3 0 333.2C0 311 0 289 0 266.8C0 244.7 0 222.3 0 200C0 177.7 0 155.3 0 133.2C0 111 0 89 0 66.8C0 44.7 0 22.3 0 11.2L0 0Z" fill="#012c6d"></path><path d="M102 0L104.2 11.2C106.3 22.3 110.7 44.7 112.7 66.8C114.7 89 114.3 111 114.5 133.2C114.7 155.3 115.3 177.7 123.7 200C132 222.3 148 244.7 150.5 266.8C153 289 142 311 136.5 333.2C131 355.3 131 377.7 133.8 400C136.7 422.3 142.3 444.7 140.5 466.8C138.7 489 129.3 511 120.8 533.2C112.3 555.3 104.7 577.7 100.8 588.8L97 600L0 600L0 588.8C0 577.7 0 555.3 0 533.2C0 511 0 489 0 466.8C0 444.7 0 422.3 0 400C0 377.7 0 355.3 0 333.2C0 311 0 289 0 266.8C0 244.7 0 222.3 0 200C0 177.7 0 155.3 0 133.2C0 111 0 89 0 66.8C0 44.7 0 22.3 0 11.2L0 0Z" fill="#003789"></path><path d="M142 0L134.3 11.2C126.7 22.3 111.3 44.7 112.2 66.8C113 89 130 111 132.2 133.2C134.3 155.3 121.7 177.7 116.2 200C110.7 222.3 112.3 244.7 119.2 266.8C126 289 138 311 144.5 333.2C151 355.3 152 377.7 142.3 400C132.7 422.3 112.3 444.7 111.3 466.8C110.3 489 128.7 511 132.2 533.2C135.7 555.3 124.3 577.7 118.7 588.8L113 600L0 600L0 588.8C0 577.7 0 555.3 0 533.2C0 511 0 489 0 466.8C0 444.7 0 422.3 0 400C0 377.7 0 355.3 0 333.2C0 311 0 289 0 266.8C0 244.7 0 222.3 0 200C0 177.7 0 155.3 0 133.2C0 111 0 89 0 66.8C0 44.7 0 22.3 0 11.2L0 0Z" fill="#0042a5"></path><path d="M95 0L95.5 11.2C96 22.3 97 44.7 100 66.8C103 89 108 111 102.3 133.2C96.7 155.3 80.3 177.7 81.7 200C83 222.3 102 244.7 101.3 266.8C100.7 289 80.3 311 75.7 333.2C71 355.3 82 377.7 88 400C94 422.3 95 444.7 96.3 466.8C97.7 489 99.3 511 93.8 533.2C88.3 555.3 75.7 577.7 69.3 588.8L63 600L0 600L0 588.8C0 577.7 0 555.3 0 533.2C0 511 0 489 0 466.8C0 444.7 0 422.3 0 400C0 377.7 0 355.3 0 333.2C0 311 0 289 0 266.8C0 244.7 0 222.3 0 200C0 177.7 0 155.3 0 133.2C0 111 0 89 0 66.8C0 44.7 0 22.3 0 11.2L0 0Z" fill="#004ec3"></path><path d="M55 0L52.3 11.2C49.7 22.3 44.3 44.7 46.5 66.8C48.7 89 58.3 111 60.8 133.2C63.3 155.3 58.7 177.7 56.3 200C54 222.3 54 244.7 56.2 266.8C58.3 289 62.7 311 61.5 333.2C60.3 355.3 53.7 377.7 54.3 400C55 422.3 63 444.7 68.7 466.8C74.3 489 77.7 511 78.8 533.2C80 555.3 79 577.7 78.5 588.8L78 600L0 600L0 588.8C0 577.7 0 555.3 0 533.2C0 511 0 489 0 466.8C0 444.7 0 422.3 0 400C0 377.7 0 355.3 0 333.2C0 311 0 289 0 266.8C0 244.7 0 222.3 0 200C0 177.7 0 155.3 0 133.2C0 111 0 89 0 66.8C0 44.7 0 22.3 0 11.2L0 0Z" fill="#005ae0"></path><path d="M30 0L28.5 11.2C27 22.3 24 44.7 25 66.8C26 89 31 111 33 133.2C35 155.3 34 177.7 33.2 200C32.3 222.3 31.7 244.7 34.8 266.8C38 289 45 311 48.8 333.2C52.7 355.3 53.3 377.7 52.5 400C51.7 422.3 49.3 444.7 49.5 466.8C49.7 489 52.3 511 52.3 533.2C52.3 555.3 49.7 577.7 48.3 588.8L47 600L0 600L0 588.8C0 577.7 0 555.3 0 533.2C0 511 0 489 0 466.8C0 444.7 0 422.3 0 400C0 377.7 0 355.3 0 333.2C0 311 0 289 0 266.8C0 244.7 0 222.3 0 200C0 177.7 0 155.3 0 133.2C0 111 0 89 0 66.8C0 44.7 0 22.3 0 11.2L0 0Z" fill="#0066ff"></path></svg>